<svg width="18" height="18" viewBox="0 0 18 18" fill="none" xmlns="http://www.w3.org/2000/svg">
<path d="M9.00001 16C7.31851 16 7.31851 14.5263 7.31851 14.5263H10.6815C10.6815 14.5263 10.6815 16 9.00001 16Z" fill="#2D2D2D"/>
<path fill-rule="evenodd" clip-rule="evenodd" d="M5.12215 12.0201L4.68479 12.3158H13.3152L12.8779 12.0201C11.9505 11.3932 11.4906 10.4142 11.5546 9.44661C11.5928 8.87019 11.6196 8.08222 11.5646 7.34936C11.5372 6.98301 11.4912 6.65882 11.427 6.39678C11.3952 6.26723 11.3621 6.16564 11.331 6.08955C11.3157 6.05221 11.3023 6.02439 11.2919 6.00482C11.2813 5.98512 11.2754 5.97678 11.2757 5.97724C10.9515 5.52529 10.6358 5.29848 10.3381 5.16815C10.0261 5.03157 9.61036 4.94737 9 4.94737C8.38964 4.94737 7.9739 5.03157 7.6619 5.16815C7.36418 5.29848 7.04846 5.52529 6.72431 5.97724C6.72464 5.97678 6.71867 5.98512 6.70813 6.00482C6.69766 6.02439 6.68427 6.05221 6.66901 6.08955C6.63792 6.16564 6.60477 6.26723 6.57301 6.39678C6.50879 6.65882 6.46284 6.98301 6.43538 7.34936C6.38044 8.08222 6.40724 8.87019 6.44539 9.44661C6.50945 10.4142 6.0495 11.3932 5.12215 12.0201ZM9 3.47368C7.43565 3.47368 6.22552 3.90351 5.30069 5.19298C4.6441 6.10847 4.68674 8.32389 4.76671 9.53196C4.8005 10.0423 4.55703 10.541 4.09514 10.8532L3.65779 11.1489C2.38736 12.0077 3.08034 13.7895 4.68479 13.7895H13.3152C14.9197 13.7895 15.6126 12.0077 14.3422 11.1489L13.9049 10.8532C13.443 10.541 13.1995 10.0423 13.2333 9.53196C13.3133 8.32389 13.3559 6.10847 12.6993 5.19298C11.7745 3.90351 10.5644 3.47368 9 3.47368Z" fill="#2D2D2D"/>
<path d="M8.15924 2.84075C8.15924 2.37642 8.53566 2 8.99999 2C9.46433 2 9.84074 2.37642 9.84074 2.84075V4.21053H8.15924V2.84075Z" fill="#2D2D2D"/>
</svg>
