<svg width="18" height="18" viewBox="0 0 18 18" fill="none" xmlns="http://www.w3.org/2000/svg">
<path fill-rule="evenodd" clip-rule="evenodd" d="M2 4.5C2 4.22386 2.22386 4 2.5 4H15.5C15.7761 4 16 4.22386 16 4.5V15.5C16 15.7761 15.7761 16 15.5 16H2.5C2.22386 16 2 15.7761 2 15.5V4.5ZM3 5V7H15V5H3ZM15 8H3V15H15V8Z" fill="#2D2D2D"/>
<path d="M12 3C12 2.44772 12.4477 2 13 2C13.5523 2 14 2.44772 14 3V4H12V3Z" fill="#2D2D2D"/>
<path d="M4 3C4 2.44772 4.44772 2 5 2C5.55228 2 6 2.44772 6 3V4H4V3Z" fill="#2D2D2D"/>
<rect x="12" y="13" width="2" height="1" rx="0.5" fill="#2D2D2D"/>
<rect x="8" y="13" width="2" height="1" rx="0.5" fill="#2D2D2D"/>
<rect x="4" y="13" width="2" height="1" rx="0.5" fill="#2D2D2D"/>
<rect x="12" y="11" width="2" height="1" rx="0.5" fill="#2D2D2D"/>
<rect x="8" y="11" width="2" height="1" rx="0.5" fill="#2D2D2D"/>
<rect x="4" y="11" width="2" height="1" rx="0.5" fill="#2D2D2D"/>
<rect x="12" y="9" width="2" height="1" rx="0.5" fill="#2D2D2D"/>
<rect x="8" y="9" width="2" height="1" rx="0.5" fill="#2D2D2D"/>
<rect x="4" y="9" width="2" height="1" rx="0.5" fill="#2D2D2D"/>
</svg>
