<svg width="18" height="18" viewBox="0 0 18 18" fill="none" xmlns="http://www.w3.org/2000/svg">
<path fill-rule="evenodd" clip-rule="evenodd" d="M6.05279 3.27639C6.13748 3.107 6.31061 3 6.5 3H11.5C11.6894 3 11.8625 3.107 11.9472 3.27639L12.809 5H15.5C15.7761 5 16 5.22386 16 5.5V14.5C16 14.7761 15.7761 15 15.5 15H2.5C2.22386 15 2 14.7761 2 14.5V5.5C2 5.22386 2.22386 5 2.5 5H5.19098L6.05279 3.27639ZM6.80902 4L5.94721 5.72361C5.86252 5.893 5.68939 6 5.5 6H3V14H15V6H12.5C12.3106 6 12.1375 5.893 12.0528 5.72361L11.191 4H6.80902Z" fill="#2D2D2D"/>
<path fill-rule="evenodd" clip-rule="evenodd" d="M9 12C10.1046 12 11 11.1046 11 10C11 8.89543 10.1046 8 9 8C7.89543 8 7 8.89543 7 10C7 11.1046 7.89543 12 9 12ZM9 13C10.6569 13 12 11.6569 12 10C12 8.34315 10.6569 7 9 7C7.34315 7 6 8.34315 6 10C6 11.6569 7.34315 13 9 13Z" fill="#2D2D2D"/>
</svg>
