<svg width="18" height="18" viewBox="0 0 18 18" fill="none" xmlns="http://www.w3.org/2000/svg">
<path d="M3 6C2.44772 6 2 5.55228 2 5C2 4.44772 2.44772 4 3 4L15 4C15.5523 4 16 4.44772 16 5C16 5.55228 15.5523 6 15 6L3 6Z" fill="#2D2D2D"/>
<path d="M3 10C2.44772 10 2 9.55228 2 9C2 8.44772 2.44772 8 3 8H15C15.5523 8 16 8.44772 16 9C16 9.55228 15.5523 10 15 10H3Z" fill="#2D2D2D"/>
<path d="M3 14C2.44772 14 2 13.5523 2 13C2 12.4477 2.44772 12 3 12H15C15.5523 12 16 12.4477 16 13C16 13.5523 15.5523 14 15 14H3Z" fill="#2D2D2D"/>
</svg>
