<svg width="18" height="18" viewBox="0 0 18 18" fill="none" xmlns="http://www.w3.org/2000/svg">
<path d="M13.4467 2.71566C13.8324 2.32041 14.4578 2.32041 14.8436 2.71566L14.9648 2.83989C15.3506 3.23514 15.3506 3.87597 14.9648 4.27122L4.21661 15.2843C3.83087 15.6796 3.20546 15.6796 2.81971 15.2843L2.69847 15.1601C2.31273 14.7649 2.31273 14.124 2.69847 13.7288L13.4467 2.71566Z" fill="#2D2D2D"/>
<path d="M3.03521 4.2712C2.64947 3.87595 2.64947 3.23513 3.03521 2.83988L3.15645 2.71565C3.5422 2.3204 4.16761 2.3204 4.55335 2.71565L15.3016 13.7288C15.6873 14.124 15.6873 14.7648 15.3016 15.1601L15.1803 15.2843C14.7946 15.6796 14.1692 15.6796 13.7834 15.2843L3.03521 4.2712Z" fill="#2D2D2D"/>
</svg>
